<svg xmlns="http://www.w3.org/2000/svg"><symbol id="blog-icon" viewBox="0 0 256 256"><path fill="#231f20" fill-rule="evenodd" d="M106.9 57.2h29.6c18.8 0 40.6 21 40.6 41v3.9c0 4.4 3.6 8.2 9.6 8.2h6.1c7.6 0 9.4 4.2 9.4 10.5v33.6c0 23.6-19.9 42.9-42.9 42.9h-56.1c-20.7 0-40.8-19.1-40.8-42.4v-53.3a44.1 44.1 0 0 1 44.5-44.5zm0 36.8h25.4a8.1 8.1 0 1 1 0 16.3h-25.4a8.1 8.1 0 0 1 0-16.3zm0 50.7h50.5a8.1 8.1 0 1 1 0 16.3h-50.5a8.1 8.1 0 0 1 0-16.3z"/></symbol><symbol id="exit-icon" viewBox="0 0 256 256"><path fill="none" stroke="#231f20" stroke-linecap="round" stroke-miterlimit="10" stroke-width="15" d="M180.6 183L76.5 79m0 104L180.6 79"/></symbol><symbol id="fb-icon" viewBox="0 0 256 256"><path fill="#231f20" d="M142.1 217.7v-75.6h25.4l3.8-29.5h-29.2V93.8c0-8.5 2.4-14.4 14.6-14.4h15.6V53a208.9 208.9 0 0 0-22.7-1.2c-22.5 0-37.9 13.7-37.9 39v21.7H86.2V142h25.5v75.6z"/></symbol><symbol id="hmbg-icon" viewBox="0 0 256 256"><path fill="none" stroke="#231f20" stroke-linecap="round" stroke-miterlimit="10" stroke-width="15" d="M201.4 78H54.3m147.1 55H54.3m147.1 55H54.3"/></symbol></svg>