<svg xmlns="http://www.w3.org/2000/svg" width="70" height="70" viewBox="0 0 70 70"><title>logo-64</title><g id="artwork"><path d="M53.6,18.5c-1.4,6.8-4.9,9.6-9.6,9.9s-8-5.8-6.5-11.8S43,6.4,47.5,6.9,54.7,13.3,53.6,18.5Z" fill="#69d7cc"/><path d="M16.2,18.5c1.4,6.8,4.9,9.6,9.6,9.9s8-5.8,6.5-11.8-5.5-10.2-10-9.7S15.1,13.3,16.2,18.5Z" fill="#69d7cc"/><path d="M3.5,33.8c1.8,5.6,5.1,7.7,9.2,7.5s6.4-5.7,4.5-10.7-5.7-8.2-9.5-7.3S2.1,29.5,3.5,33.8Z" fill="#69d7cc"/><path d="M66.6,33.8c-1.8,5.6-5.1,7.7-9.2,7.5s-6.4-5.7-4.5-10.7,5.7-8.2,9.5-7.3S68,29.5,66.6,33.8Z" fill="#69d7cc"/><path d="M53.9,48.8V62.2a3.3,3.3,0,0,1-3.3,3.3H46.5a.6.6,0,0,1-.6-.6v-11A10.6,10.6,0,0,0,35.4,43.3h-.4A10.6,10.6,0,0,0,24.4,53.9v11a.6.6,0,0,1-.6.6h-4a3.3,3.3,0,0,1-3.3-3.3V49a6.4,6.4,0,0,1,2.2-4.9L34,30.5a1.8,1.8,0,0,1,2.5,0c3,2.8,10.8,9.8,15.1,13.3A6.4,6.4,0,0,1,53.9,48.8Z" fill="#668c95"/></g></svg>