<svg xmlns="http://www.w3.org/2000/svg" width="36" height="36" viewBox="0 0 36 36"><title>logo-32</title><g id="artwork"><path d="M27.4,9.9c-.7,3.4-2.5,4.8-4.8,4.9S18.6,12,19.4,9s2.8-5.1,5-4.8S28,7.3,27.4,9.9Z" fill="#69d7cc"/><path d="M8.8,9.9c.7,3.4,2.5,4.8,4.8,4.9s4-2.9,3.2-5.9-2.8-5.1-5-4.8S8.2,7.3,8.8,9.9Z" fill="#69d7cc"/><path d="M2.4,17.6C3.3,20.4,5,21.4,7,21.3s3.2-2.9,2.3-5.3-2.9-4.1-4.8-3.6S1.7,15.4,2.4,17.6Z" fill="#69d7cc"/><path d="M33.9,17.6c-.9,2.8-2.6,3.8-4.6,3.7S26.1,18.5,27,16s2.9-4.1,4.8-3.6S34.6,15.4,33.9,17.6Z" fill="#69d7cc"/><path d="M27.6,25.1v6.7A1.6,1.6,0,0,1,26,33.4H23.9a.3.3,0,0,1-.3-.3V27.6a5.3,5.3,0,0,0-5.3-5.3h-.2a5.3,5.3,0,0,0-5.3,5.3v5.5a.3.3,0,0,1-.3.3h-2a1.6,1.6,0,0,1-1.6-1.6V25.2A3.2,3.2,0,0,1,10,22.7l7.6-6.8a.9.9,0,0,1,1.2,0c1.5,1.4,5.4,4.9,7.6,6.6A3.2,3.2,0,0,1,27.6,25.1Z" fill="#668c95"/></g></svg>