<svg xmlns="http://www.w3.org/2000/svg" width="260" height="260" viewBox="0 0 260 260"><title>logo-256</title><g id="artwork"><path d="M204.1,61.8c-5.6,27.1-19.7,38.3-38.4,39.6s-32.1-23.1-26-47.2,22.1-40.9,39.9-38.8S208.4,40.9,204.1,61.8Z" fill="#69d7cc"/><path d="M54.6,61.8c5.6,27.1,19.7,38.3,38.4,39.6s32.1-23.1,26-47.2S96.9,13.3,79.1,15.4,50.3,40.9,54.6,61.8Z" fill="#69d7cc"/><path d="M3.8,123c7.4,22.6,20.6,30.7,37,30s25.6-22.8,18.1-42.8S35.9,77.5,20.7,81.1-1.9,105.6,3.8,123Z" fill="#69d7cc"/><path d="M256,123c-7.4,22.6-20.6,30.7-37,30s-25.6-22.8-18.1-42.8S223.8,77.5,239,81.1,261.7,105.6,256,123Z" fill="#69d7cc"/><path d="M205.5,182.8v53.5a13.1,13.1,0,0,1-13.1,13.1H175.8a2.4,2.4,0,0,1-2.4-2.4V203.2A42.2,42.2,0,0,0,131.3,161h-1.8a42.2,42.2,0,0,0-42.2,42.2v43.8a2.4,2.4,0,0,1-2.4,2.4H68.7a13.1,13.1,0,0,1-13.1-13.1V183.6a25.6,25.6,0,0,1,8.9-19.5l61-54.5a7.3,7.3,0,0,1,9.9.1c12,11.2,43.3,39.3,60.4,53A25.6,25.6,0,0,1,205.5,182.8Z" fill="#668c95"/></g></svg>